<?xml version="1.0" encoding="UTF-8" standalone="no"?>
<svg width="64" height="64" viewBox="0 0 64 64" xmlns="http://www.w3.org/2000/svg">
  <rect width="64" height="64" fill="#FFFFFF" />
  
  <!-- Pixelated A letter -->
  <g transform="translate(8, 8)" fill="#000000">
    <!-- A - Pixelated Style -->
    <rect x="16" y="0" width="8" height="8" />
    <rect x="24" y="0" width="8" height="8" />
    
    <rect x="8" y="8" width="8" height="8" />
    <rect x="16" y="8" width="8" height="8" />
    <rect x="24" y="8" width="8" height="8" />
    <rect x="32" y="8" width="8" height="8" />
    
    <rect x="8" y="16" width="8" height="8" />
    <rect x="32" y="16" width="8" height="8" />
    
    <rect x="0" y="24" width="8" height="8" />
    <rect x="8" y="24" width="8" height="8" />
    <rect x="16" y="24" width="8" height="8" />
    <rect x="24" y="24" width="8" height="8" />
    <rect x="32" y="24" width="8" height="8" />
    <rect x="40" y="24" width="8" height="8" />
    
    <rect x="0" y="32" width="8" height="8" />
    <rect x="8" y="32" width="8" height="8" />
    <rect x="32" y="32" width="8" height="8" />
    <rect x="40" y="32" width="8" height="8" />
    
    <rect x="0" y="40" width="8" height="8" />
    <rect x="8" y="40" width="8" height="8" />
    <rect x="32" y="40" width="8" height="8" />
    <rect x="40" y="40" width="8" height="8" />
  </g>
  
  <!-- Simple border -->
  <rect x="0" y="0" width="64" height="64" fill="none" stroke="#000000" stroke-width="2" />
</svg>