<svg xmlns="http://www.w3.org/2000/svg" width="64" height="64" fill="#fff" viewBox="0 0 16.933 16.933"><path d="m 2.1169321,1.058333 c -0.5817401,0 -1.0583401,0.4766099 -1.0583401,1.05837 v 7.4085919 c 0,0.5817611 0.4766,1.0583701 1.0583401,1.0583701 h 4.4953298 c -0.011499,1.362525 -0.22791,2.49594 -0.4712902,3.439704 H 4.7612118 c -0.2885799,0 -0.5291698,0.240593 -0.5291698,0.529185 v 0.793261 c 0,0.288592 0.2405899,0.529185 0.5291698,0.529185 h 7.4083292 c 0.28858,0 0.52917,-0.240593 0.52917,-0.529185 v -0.793261 c 0,-0.288591 -0.24058,-0.529185 -0.52917,-0.529185 h -1.37769 c -0.24319,-0.943759 -0.45796,-2.07716 -0.469219,-3.439704 h 4.493259 c 0.58174,0 1.05885,-0.476609 1.05885,-1.0583701 V 2.116703 c 0,-0.58176 -0.47711,-1.05837 -1.05885,-1.05837 z m 0,0.529185 H 14.815891 c 0.29774,0 0.52969,0.23144 0.52969,0.529185 V 8.4664079 H 1.587762 V 2.116703 c 0,-0.297745 0.2314301,-0.529185 0.5291701,-0.529185 z M 7.9362119,2.116186 C 7.790702,2.1167681 7.6729518,2.234742 7.6726618,2.380262 v 0.562259 c -0.0402,0.01524 -0.0806,0.03157 -0.1198898,0.04909 L 7.1569318,2.594723 c -0.1033899,-0.103634 -0.2712699,-0.103634 -0.37465,0 L 6.0340017,3.3430239 c -0.1039696,0.103448 -0.1039696,0.271735 0,0.375184 l 0.3958403,0.396372 c -0.017701,0.03909 -0.0331,0.07935 -0.0486,0.119376 H 5.8184919 c -0.14532,5.821e-4 -0.26297,0.118241 -0.2635499,0.2635589 v 1.0583711 c 5.821e-4,0.1453179 0.1182298,0.2629779 0.2635498,0.2635589 H 6.381242 c 0.015499,0.04003 0.0309,0.08029 0.0486,0.119376 L 6.0340017,6.3351929 c -0.1039696,0.1034489 -0.1039696,0.271736 0,0.3751839 L 6.7822818,7.458678 c 0.1033801,0.1036338 0.2712601,0.1036338 0.37465,0 L 7.552772,7.0617889 c 0.0393,0.017521 0.0797,0.03385 0.1198898,0.04909 V 7.6731378 C 7.6729529,7.8186589 7.790702,7.9366319 7.9362119,7.9372139 H 8.9950618 C 9.141382,7.9377696 9.260382,7.8194659 9.2606821,7.6731389 v -0.560192 c 0.0404,-0.015549 0.0795,-0.03331 0.1188497,-0.05116 l 0.39688,0.396889 c 0.1033802,0.1036331 0.2712592,0.1036331 0.3746492,0 l 0.74776,-0.748301 c 0.10398,-0.1034492 0.10398,-0.271735 0,-0.3751842 l -0.39636,-0.3943048 c 0.0177,-0.03973 0.0337,-0.08075 0.0491,-0.1214429 h 0.56069 c 0.14612,5.556e-4 0.26503,-0.1174351 0.26562,-0.2635592 V 4.4975129 c -5.82e-4,-0.146124 -0.1195,-0.264115 -0.26562,-0.2635591 h -0.56069 c -0.0154,-0.04069 -0.0314,-0.08171 -0.0491,-0.1214429 l 0.39636,-0.394299 c 0.10398,-0.103449 0.10398,-0.2717359 0,-0.375184 L 10.151061,2.594727 c -0.10339,-0.103633 -0.271269,-0.103633 -0.3746492,0 l -0.39688,0.396889 c -0.0394,-0.01785 -0.0785,-0.03561 -0.1188497,-0.05116 V 2.380264 C 9.260382,2.233937 9.141382,2.115632 8.9950618,2.116188 Z M 8.201832,2.645888 h 0.5291599 v 0.4687219 c 5.557e-4,0.118413 0.0797,0.2220491 0.1937899,0.25374 0.1354501,0.03812 0.2643902,0.09448 0.3865401,0.1643371 0.1036399,0.05911 0.2340301,0.04154 0.31833,-0.04289 l 0.33383,-0.334358 0.3730991,0.375184 -0.33176,0.3317739 c -0.083699,0.08405 -0.1011992,0.2135111 -0.042899,0.3167868 0.068999,0.1225612 0.12299,0.2529843 0.16019,0.3886211 0.0313,0.1154512 0.13619,0.1955332 0.2558,0.1953432 h 0.47077 v 0.5271188 h -0.47077 c -0.11961,-1.9e-4 -0.22448,0.07989 -0.255801,0.1953432 -0.0372,0.1356369 -0.0912,0.2660599 -0.1601889,0.3886207 -0.0583,0.1032762 -0.0408,0.2327352 0.0429,0.3167873 L 10.336581,6.522792 9.9634819,6.8979759 9.629652,6.563618 C 9.545352,6.479188 9.4149619,6.4616168 9.3113219,6.520728 9.189172,6.590578 9.0602319,6.646943 8.9247818,6.685065 8.810692,6.716755 8.7315419,6.8203919 8.7309919,6.9388049 V 7.407527 H 8.201832 V 6.9367379 c 1.798e-4,-0.11962 -0.0799,-0.2244911 -0.19534,-0.2558071 -0.1354803,-0.03723 -0.2641202,-0.09124 -0.3865402,-0.1602029 -0.10364,-0.0591 -0.23402,-0.04154 -0.31833,0.04289 L 6.9693419,6.8979759 6.5962418,6.522792 6.9285217,6.1889508 c 0.0844,-0.0843 0.1020001,-0.2146898 0.0429,-0.318338 -0.0698,-0.1220081 -0.12411,-0.251773 -0.16227,-0.38707 -0.0321,-0.1146288 -0.13676,-0.19372 -0.2557899,-0.193276 H 6.0846517 V 4.763148 h 0.4687102 c 0.11903,4.498e-4 0.2236999,-0.07865 0.2557899,-0.193276 0.0382,-0.1352971 0.0924,-0.2650622 0.1622701,-0.3870701 0.0591,-0.1036481 0.0415,-0.2340349 -0.0429,-0.3183378 L 6.5962418,3.530623 6.9693419,3.155439 7.3016218,3.489797 c 0.0843,0.08443 0.21469,0.101995 0.3183301,0.04289 0.12242,-0.06896 0.2510598,-0.1229711 0.3865402,-0.160203 0.1154499,-0.03132 0.1955199,-0.1361871 0.19534,-0.255807 z m 0.2651,1.3219299 c -0.58137,0 -1.0583402,0.4774991 -1.0583402,1.058886 0,0.581388 0.4769702,1.0588869 1.0583402,1.0588869 0.5813697,0 1.0588497,-0.4774988 1.0588497,-1.0588869 0,-0.5813869 -0.47748,-1.058886 -1.0588497,-1.058886 z m 0,0.5297009 c 0.2953797,0 0.5296799,0.23379 0.5296799,0.5291851 0,0.2953959 -0.2343002,0.529186 -0.5296799,0.529186 -0.2953901,0 -0.5291701,-0.2337901 -0.5291701,-0.529186 0,-0.2953951 0.23378,-0.5291851 0.5291701,-0.5291851 z m -6.87917,4.498591 h 13.757819 v 0.5291851 c 0,0.2977449 -0.23195,0.5291851 -0.52969,0.5291851 H 2.1169321 c -0.29774,0 -0.5291701,-0.2314402 -0.5291701,-0.5291851 z M 7.1419418,10.583665 H 9.792942 c 0.0108,1.357019 0.217399,2.493201 0.45424,3.439704 H 6.6861618 c 0.2371201,-0.946489 0.4448202,-2.08272 0.45578,-3.439704 z m -2.38073,3.968889 h 7.4083292 v 0.793261 H 4.7612117 Z"/></svg>